<svg width="321" height="266" viewBox="0 0 321 266" fill="none" xmlns="http://www.w3.org/2000/svg">
<g filter="url(#filter0_d_1853_786)">
<path fill-rule="evenodd" clip-rule="evenodd" d="M200.439 0C222.841 0 237.373 14.5312 237.373 36.9337V118.066C237.373 140.469 222.841 155 200.439 155H119.306C96.9038 155 82.3726 140.469 82.3726 118.066V36.9337C82.3726 14.5312 96.9038 0 119.306 0H200.439Z" fill="url(#paint0_linear_1853_786)"/>
<path fill-rule="evenodd" clip-rule="evenodd" d="M142.552 0L107.834 136.171L236.381 27.7894C232.925 10.6575 219.512 0 200.327 0H142.552Z" fill="#FFB908"/>
<path d="M166.906 31.3766C168.081 33.4103 167.384 36.0107 165.35 37.1848C163.317 38.359 160.716 37.6622 159.542 35.6285C158.368 33.5949 159.065 30.9945 161.098 29.8203C163.132 28.6462 165.732 29.343 166.906 31.3766Z" fill="black"/>
<path d="M181.647 31.3766C182.821 33.4103 182.124 36.0107 180.09 37.1848C178.057 38.359 175.456 37.6622 174.282 35.6285C173.108 33.5949 173.805 30.9945 175.839 29.8203C177.872 28.6462 180.473 29.343 181.647 31.3766Z" fill="black"/>
<path d="M172.373 46H181.373V56.5C181.373 58.9853 179.358 61 176.873 61C174.387 61 172.373 58.9853 172.373 56.5V46Z" fill="white"/>
<path d="M160.373 46H169.373V56.5C169.373 58.9853 167.358 61 164.873 61C162.387 61 160.373 58.9853 160.373 56.5V46Z" fill="white"/>
<path d="M258.565 243.767V238.795L263.295 237.885V205.537L258.565 204.627V199.625H263.295H275.331L287.822 230.973H288.003L300.1 199.625H316.956V204.627L312.197 205.537V237.885L316.956 238.795V243.767H299.19V238.795L304.193 237.885V228.517L304.314 208.902L304.163 208.872L290.702 242.948H284.608L270.814 209.084L270.632 209.114L271.117 227.79V237.885L276.331 238.795V243.767H258.565Z" fill="#FFA046"/>
<path d="M220.889 243.767V238.795L225.649 237.885V205.537L220.889 204.627V199.625H254.814V211.267H248.447L247.993 205.961H233.895V217.755H249.114V224.152H233.895V237.461H248.781L249.236 232.034H255.542V243.767H220.889Z" fill="#9ECB45"/>
<path d="M191.035 243.767V238.795L195.795 237.885V205.961H187.336L186.76 211.418H180.545V199.625H219.351V211.418H213.106L212.53 205.961H204.041V237.885L208.831 238.795V243.767H191.035Z" fill="#7569DE"/>
<path d="M162.818 244.403C159.685 244.403 156.795 244.039 154.147 243.312C151.519 242.564 148.953 241.311 146.446 239.552V229.123H152.813L153.783 235.551C154.773 236.319 156.057 236.935 157.633 237.4C159.23 237.865 160.958 238.097 162.818 238.097C164.515 238.097 165.94 237.865 167.092 237.4C168.265 236.915 169.154 236.238 169.76 235.369C170.367 234.479 170.67 233.449 170.67 232.276C170.67 231.144 170.397 230.154 169.851 229.305C169.305 228.436 168.406 227.658 167.153 226.971C165.92 226.263 164.242 225.596 162.12 224.97C158.725 224.02 155.895 222.939 153.631 221.726C151.368 220.513 149.67 219.058 148.538 217.36C147.427 215.642 146.871 213.601 146.871 211.236C146.871 208.871 147.517 206.78 148.811 204.96C150.125 203.121 151.934 201.676 154.238 200.625C156.562 199.574 159.23 199.039 162.242 199.018C165.597 198.978 168.558 199.392 171.124 200.261C173.691 201.13 175.884 202.303 177.703 203.778V213.48H171.488L170.367 207.386C169.558 206.84 168.497 206.375 167.183 205.991C165.87 205.607 164.354 205.415 162.636 205.415C161.16 205.415 159.857 205.648 158.725 206.113C157.593 206.557 156.704 207.214 156.057 208.083C155.41 208.952 155.087 209.993 155.087 211.206C155.087 212.257 155.37 213.176 155.936 213.965C156.501 214.753 157.451 215.481 158.785 216.148C160.119 216.815 161.928 217.502 164.212 218.209C169.043 219.523 172.701 221.301 175.187 223.545C177.693 225.768 178.946 228.658 178.946 232.216C178.946 234.681 178.269 236.834 176.915 238.673C175.581 240.492 173.701 241.907 171.276 242.918C168.871 243.908 166.051 244.403 162.818 244.403Z" fill="#FE6845"/>
<path d="M113.087 257.016C112.319 257.016 111.501 256.945 110.631 256.803C109.783 256.682 108.974 256.51 108.206 256.288L109.207 249.8C109.591 249.881 110.015 249.942 110.48 249.982C110.945 250.023 111.349 250.043 111.693 250.043C112.966 250.043 114.067 249.709 114.997 249.042C115.927 248.375 116.604 247.415 117.028 246.162L117.756 244.131L106.781 216.876L102.749 216.3V210.964H120.151V216.3L116.149 216.906L121.303 231.367L121.94 233.156H122.122L128.215 216.845L124.305 216.3V210.964H140.524V216.3L136.826 216.815L124.305 248.648C123.698 250.164 122.92 251.548 121.97 252.802C121.04 254.075 119.848 255.096 118.393 255.864C116.958 256.632 115.189 257.016 113.087 257.016Z" fill="white"/>
<path d="M88.781 244.404C86.3354 244.404 84.0515 244.171 81.9293 243.706C79.8273 243.241 77.8062 242.574 75.8659 241.705L75.7749 232.428H81.9293L83.1117 237.158C83.7989 237.501 84.5467 237.774 85.3551 237.976C86.1838 238.178 87.1236 238.279 88.1746 238.279C90.1554 238.279 91.55 237.956 92.3584 237.309C93.1669 236.663 93.5711 235.854 93.5711 234.884C93.5711 233.974 93.1366 233.176 92.2675 232.489C91.4186 231.781 89.7107 231.165 87.1439 230.64C83.2633 229.831 80.4033 228.578 78.5641 226.88C76.7248 225.182 75.8052 223.01 75.8052 220.362C75.8052 218.543 76.26 216.886 77.1695 215.39C78.0992 213.894 79.5039 212.692 81.3836 211.782C83.2835 210.873 85.7088 210.418 88.6597 210.418C91.1255 210.418 93.3791 210.661 95.4205 211.146C97.482 211.61 99.2101 212.227 100.605 212.995L100.696 221.969H94.5716L93.6317 217.664C93.086 217.26 92.4393 216.956 91.6914 216.754C90.9638 216.552 90.1352 216.451 89.2054 216.451C87.6491 216.451 86.4567 216.764 85.628 217.391C84.7993 218.017 84.385 218.826 84.385 219.816C84.385 220.382 84.5265 220.908 84.8094 221.393C85.1126 221.878 85.6987 222.333 86.5678 222.757C87.4369 223.182 88.7001 223.586 90.3575 223.97C94.42 224.899 97.381 226.142 99.2404 227.699C101.1 229.235 102.03 231.397 102.03 234.187C102.03 237.239 100.918 239.704 98.6947 241.584C96.4917 243.464 93.1871 244.404 88.781 244.404Z" fill="white"/>
<path d="M52.7722 244.403C49.5182 244.403 46.9311 243.534 45.011 241.796C43.0909 240.037 42.1309 237.653 42.1309 234.641C42.1309 232.579 42.6867 230.771 43.7983 229.214C44.9301 227.658 46.5875 226.435 48.7703 225.546C50.9734 224.657 53.6817 224.212 56.8953 224.212H61.2307V221.787C61.2307 220.21 60.7658 218.937 59.8361 217.967C58.9266 216.976 57.5522 216.481 55.713 216.481C54.763 216.481 53.9141 216.602 53.1663 216.845C52.4185 217.067 51.7313 217.391 51.1048 217.815L50.4075 222.15H44.0408L43.9196 213.631C45.6375 212.661 47.497 211.873 49.4979 211.266C51.4989 210.66 53.7322 210.357 56.198 210.357C60.4829 210.357 63.8683 211.357 66.3543 213.358C68.8403 215.339 70.0833 218.179 70.0833 221.877V235.399C70.0833 235.844 70.0833 236.288 70.0833 236.733C70.1035 237.157 70.144 237.572 70.2046 237.976L73.6304 238.461V243.766H62.6556C62.4333 243.201 62.211 242.594 61.9886 241.947C61.7663 241.301 61.6046 240.654 61.5036 240.007C60.4526 241.341 59.2096 242.412 57.7745 243.221C56.3597 244.009 54.6923 244.403 52.7722 244.403ZM55.1369 237.855C56.3698 237.855 57.5421 237.582 58.6537 237.036C59.7654 236.47 60.6244 235.732 61.2307 234.823V229.639H56.865C54.9247 229.639 53.4493 230.083 52.4387 230.973C51.4483 231.862 50.9532 232.933 50.9532 234.186C50.9532 235.359 51.317 236.268 52.0446 236.915C52.7924 237.541 53.8232 237.855 55.1369 237.855Z" fill="white"/>
<path d="M4 243.767V238.461L8.69917 237.552V205.87L4 204.961V199.625H38.2584V211.54H31.4674L31.0733 206.446H17.5518V217.542H32.4982V224.364H17.5518V236.976H31.8009L32.195 231.701H38.9254V243.767H4Z" fill="white"/>
</g>
<defs>
<filter id="filter0_d_1853_786" x="0" y="0" width="320.957" height="265.016" filterUnits="userSpaceOnUse" color-interpolation-filters="sRGB">
<feFlood flood-opacity="0" result="BackgroundImageFix"/>
<feColorMatrix in="SourceAlpha" type="matrix" values="0 0 0 0 0 0 0 0 0 0 0 0 0 0 0 0 0 0 127 0" result="hardAlpha"/>
<feOffset dy="4"/>
<feGaussianBlur stdDeviation="2"/>
<feComposite in2="hardAlpha" operator="out"/>
<feColorMatrix type="matrix" values="0 0 0 0 0 0 0 0 0 0 0 0 0 0 0 0 0 0 0.25 0"/>
<feBlend mode="normal" in2="BackgroundImageFix" result="effect1_dropShadow_1853_786"/>
<feBlend mode="normal" in="SourceGraphic" in2="effect1_dropShadow_1853_786" result="shape"/>
</filter>
<linearGradient id="paint0_linear_1853_786" x1="82.3726" y1="0" x2="82.3726" y2="155" gradientUnits="userSpaceOnUse">
<stop stop-color="#FF8541"/>
<stop offset="1" stop-color="#ED6400"/>
</linearGradient>
</defs>
</svg>
